<svg id="visual" viewBox="0 0 1200 900" width="1200" height="900" xmlns="http://www.w3.org/2000/svg" xmlns:xlink="http://www.w3.org/1999/xlink" version="1.1"><rect x="0" y="0" width="1200" height="900" fill="#000000"></rect><path d="M0 557L63 507L126 540L189 520L253 564L316 516L379 513L442 561L505 582L568 497L632 541L695 468L758 487L821 582L884 559L947 545L1011 510L1074 445L1137 515L1200 571L1200 901L1137 901L1074 901L1011 901L947 901L884 901L821 901L758 901L695 901L632 901L568 901L505 901L442 901L379 901L316 901L253 901L189 901L126 901L63 901L0 901Z" fill="#0066ff"></path><path d="M0 553L63 503L126 504L189 519L253 558L316 500L379 552L442 486L505 535L568 490L632 529L695 488L758 580L821 594L884 480L947 578L1011 543L1074 539L1137 490L1200 576L1200 901L1137 901L1074 901L1011 901L947 901L884 901L821 901L758 901L695 901L632 901L568 901L505 901L442 901L379 901L316 901L253 901L189 901L126 901L63 901L0 901Z" fill="#005fea"></path><path d="M0 593L63 633L126 574L189 637L253 610L316 544L379 565L442 565L505 551L568 571L632 587L695 549L758 623L821 535L884 520L947 620L1011 620L1074 618L1137 593L1200 634L1200 901L1137 901L1074 901L1011 901L947 901L884 901L821 901L758 901L695 901L632 901L568 901L505 901L442 901L379 901L316 901L253 901L189 901L126 901L63 901L0 901Z" fill="#0058d4"></path><path d="M0 595L63 628L126 562L189 605L253 571L316 574L379 586L442 583L505 639L568 565L632 629L695 573L758 557L821 597L884 652L947 575L1011 550L1074 654L1137 657L1200 659L1200 901L1137 901L1074 901L1011 901L947 901L884 901L821 901L758 901L695 901L632 901L568 901L505 901L442 901L379 901L316 901L253 901L189 901L126 901L63 901L0 901Z" fill="#0050bf"></path><path d="M0 591L63 586L126 680L189 586L253 597L316 602L379 594L442 587L505 687L568 620L632 608L695 627L758 695L821 594L884 682L947 644L1011 655L1074 594L1137 604L1200 641L1200 901L1137 901L1074 901L1011 901L947 901L884 901L821 901L758 901L695 901L632 901L568 901L505 901L442 901L379 901L316 901L253 901L189 901L126 901L63 901L0 901Z" fill="#0049ab"></path><path d="M0 681L63 722L126 639L189 644L253 646L316 715L379 697L442 644L505 694L568 636L632 678L695 702L758 639L821 668L884 718L947 679L1011 722L1074 685L1137 712L1200 661L1200 901L1137 901L1074 901L1011 901L947 901L884 901L821 901L758 901L695 901L632 901L568 901L505 901L442 901L379 901L316 901L253 901L189 901L126 901L63 901L0 901Z" fill="#004296"></path><path d="M0 662L63 710L126 657L189 702L253 741L316 732L379 704L442 680L505 694L568 700L632 698L695 687L758 726L821 659L884 659L947 673L1011 721L1074 725L1137 742L1200 688L1200 901L1137 901L1074 901L1011 901L947 901L884 901L821 901L758 901L695 901L632 901L568 901L505 901L442 901L379 901L316 901L253 901L189 901L126 901L63 901L0 901Z" fill="#003a82"></path><path d="M0 698L63 692L126 731L189 725L253 721L316 702L379 722L442 767L505 760L568 758L632 725L695 772L758 717L821 767L884 743L947 692L1011 724L1074 713L1137 733L1200 760L1200 901L1137 901L1074 901L1011 901L947 901L884 901L821 901L758 901L695 901L632 901L568 901L505 901L442 901L379 901L316 901L253 901L189 901L126 901L63 901L0 901Z" fill="#00336e"></path><path d="M0 766L63 797L126 740L189 780L253 776L316 791L379 747L442 739L505 787L568 754L632 761L695 789L758 783L821 749L884 789L947 759L1011 750L1074 774L1137 769L1200 789L1200 901L1137 901L1074 901L1011 901L947 901L884 901L821 901L758 901L695 901L632 901L568 901L505 901L442 901L379 901L316 901L253 901L189 901L126 901L63 901L0 901Z" fill="#002b5a"></path><path d="M0 802L63 796L126 802L189 805L253 825L316 824L379 784L442 825L505 771L568 773L632 810L695 817L758 787L821 825L884 768L947 790L1011 809L1074 815L1137 784L1200 804L1200 901L1137 901L1074 901L1011 901L947 901L884 901L821 901L758 901L695 901L632 901L568 901L505 901L442 901L379 901L316 901L253 901L189 901L126 901L63 901L0 901Z" fill="#002347"></path><path d="M0 833L63 851L126 842L189 839L253 834L316 816L379 851L442 849L505 818L568 805L632 830L695 849L758 835L821 821L884 841L947 818L1011 847L1074 831L1137 805L1200 806L1200 901L1137 901L1074 901L1011 901L947 901L884 901L821 901L758 901L695 901L632 901L568 901L505 901L442 901L379 901L316 901L253 901L189 901L126 901L63 901L0 901Z" fill="#001a34"></path><path d="M0 854L63 863L126 861L189 851L253 859L316 850L379 841L442 863L505 877L568 842L632 842L695 837L758 845L821 865L884 850L947 868L1011 854L1074 865L1137 877L1200 863L1200 901L1137 901L1074 901L1011 901L947 901L884 901L821 901L758 901L695 901L632 901L568 901L505 901L442 901L379 901L316 901L253 901L189 901L126 901L63 901L0 901Z" fill="#001122"></path></svg>